<svg xmlns="http://www.w3.org/2000/svg" viewBox="0 0 2551.18 2551.18"><defs><g id="seoul-1"><path d="M 0.00159718 0.000837819 L 49.955148 0.000837819 " transform="matrix(0.999679, 0, 0, -0.999679, 723.420278, 1827.379744)"/><path d="M -0.000297729 0.00113838 L 0.0661299 315.266501 C 0.0661299 323.093234 6.411919 329.435116 14.238652 329.435116 L 596.175639 329.435116 C 599.930751 329.435116 603.537379 330.931691 606.194483 333.588794 L 708.746966 436.141277 C 711.40407 438.798381 715.010697 440.291048 718.769718 440.291048 L 910.131987 440.291048 C 917.95872 440.291048 924.304509 446.640745 924.304509 454.467478 L 924.402197 685.682397 C 924.402197 689.445325 925.898772 693.051952 928.559783 695.712963 L 1005.736925 772.800233 C 1008.397936 775.461244 1009.890603 779.067872 1009.890603 782.8308 L 1009.890603 862.184422 C 1009.890603 865.943443 1008.397936 869.55007 1005.740832 872.207174 L 827.847735 1050.100271 C 825.186724 1052.761283 823.694056 1056.371818 823.694056 1060.134746 L 823.799559 1210.944922 C 823.803467 1218.767748 830.145348 1225.10963 837.972082 1225.10963 L 1479.197649 1225.10963 C 1482.937132 1225.10963 1486.52813 1226.586667 1489.185234 1229.224233 L 1529.233258 1268.983102 C 1531.913807 1271.644113 1533.418196 1275.266371 1533.418196 1279.041021 L 1533.457271 1526.60885 L 1533.457271 1559.162279 C 1533.457271 1562.921299 1534.953846 1566.527927 1537.61095 1569.185031 L 1862.828729 1894.40281 C 1865.485833 1897.063821 1869.09246 1898.556488 1872.851481 1898.556488 L 2176.167691 1898.556488 " transform="matrix(0.999679, 0, 0, -0.999679, 226.969048, 1966.079263)"/><path d="M -0.000469993 0.000493253 L -0.000469993 -238.25575 C -0.000469993 -242.01477 1.492197 -245.61749 4.149301 -248.274594 L 410.623658 -654.748951 " transform="matrix(0.999679, 0, 0, -0.999679, 776.473126, 1636.918462)"/><path d="M -0.000356509 -0.00186549 L -0.000356509 -6.046777 C -0.000356509 -9.805797 -1.493024 -13.412425 -4.150127 -16.069528 L -156.101296 -168.020696 C -158.688064 -170.666078 -162.232172 -172.158745 -165.936487 -172.158745 L -929.713151 -172.158745 " transform="matrix(0.999679, 0, 0, -0.999679, 1183.887075, 2294.533291)"/><path d="M 0.0013825 -0.000928219 L -76.112918 -0.000928219 " transform="matrix(0.999679, 0, 0, -0.999679, 1206.076743, 2361.600635)"/><path d="M 0.000714887 -0.00125321 C 0.000714887 -1.564255 -1.269224 -2.834195 -2.836134 -2.834195 C -4.399136 -2.834195 -5.669076 -1.564255 -5.669076 -0.00125321 C -5.669076 1.565657 -4.399136 2.835596 -2.836134 2.835596 C -1.269224 2.835596 0.000714887 1.565657 0.000714887 -0.00125321 Z M 0.000714887 -0.00125321 " transform="matrix(0.999679, 0, 0, -0.999679, 1788.788348, 375.529997)"/><path d="M 0.00194553 -0.0000225723 C 0.00194553 -1.566932 -1.267994 -2.836872 -2.834903 -2.836872 C -4.397906 -2.832964 -5.667845 -1.566932 -5.667845 -0.0000225723 C -5.667845 1.566887 -4.397906 2.836826 -2.834903 2.836826 C -1.267994 2.836826 0.00194553 1.566887 0.00194553 -0.0000225723 Z M 0.00194553 -0.0000225723 " transform="matrix(0.999679, 0, 0, -0.999679, 1813.88868, 350.429665)"/><path d="M 0.000420383 0.00185979 C 0.000420383 -1.56505 -1.269519 -2.834989 -2.836429 -2.834989 C -4.399431 -2.834989 -5.66937 -1.56505 -5.66937 0.00185979 C -5.66937 1.564862 -4.399431 2.834801 -2.836429 2.834801 C -1.269519 2.834801 0.000420383 1.564862 0.000420383 0.00185979 Z M 0.000420383 0.00185979 " transform="matrix(0.999679, 0, 0, -0.999679, 1878.933174, 285.384672)"/><path d="M -0.000229645 0.000709759 C -0.000229645 -1.5662 -1.270169 -2.836139 -2.833171 -2.836139 C -4.400081 -2.836139 -5.67002 -1.5662 -5.67002 0.000709759 C -5.67002 1.563712 -4.400081 2.833651 -2.833171 2.833651 C -1.270169 2.833651 -0.000229645 1.563712 -0.000229645 0.000709759 Z M -0.000229645 0.000709759 " transform="matrix(0.999679, 0, 0, -0.999679, 1952.863511, 211.453835)"/><path d="M -0.000530675 0.00140873 C -0.000530675 -1.565501 -1.27047 -2.83544 -2.833472 -2.83544 C -4.400382 -2.83544 -5.670321 -1.565501 -5.670321 0.00140873 C -5.670321 1.564411 -4.400382 2.83435 -2.833472 2.83435 C -1.27047 2.83435 -0.000530675 1.564411 -0.000530675 0.00140873 Z M -0.000530675 0.00140873 " transform="matrix(0.999679, 0, 0, -0.999679, 1994.395062, 169.923283)"/><path d="M -0.00085945 0.000979954 C -0.00085945 -1.56593 -1.270799 -2.835869 -2.833801 -2.835869 C -4.400711 -2.835869 -5.67065 -1.56593 -5.67065 0.000979954 C -5.67065 1.563982 -4.400711 2.833921 -2.833801 2.833921 C -1.270799 2.833921 -0.00085945 1.563982 -0.00085945 0.000979954 Z M -0.00085945 0.000979954 " transform="matrix(0.999679, 0, 0, -0.999679, 2014.625859, 149.692386)"/><path d="M -0.00118823 0.000651179 C -0.00118823 -1.566259 -1.271128 -2.83229 -2.83413 -2.83229 C -4.401039 -2.83229 -5.667071 -1.566259 -5.667071 0.000651179 C -5.667071 1.567561 -4.401039 2.833593 -2.83413 2.833593 C -1.271128 2.833593 -0.00118823 1.567561 -0.00118823 0.000651179 Z M -0.00118823 0.000651179 " transform="matrix(0.999679, 0, 0, -0.999679, 2034.856657, 129.461588)"/><path d="M -0.001517 0.000322405 C -0.001517 -1.566587 -1.271456 -2.832619 -2.834459 -2.832619 C -4.401368 -2.832619 -5.671308 -1.566587 -5.671308 0.000322405 C -5.671308 1.567232 -4.401368 2.833264 -2.834459 2.833264 C -1.271456 2.833264 -0.001517 1.567232 -0.001517 0.000322405 Z M -0.001517 0.000322405 " transform="matrix(0.999679, 0, 0, -0.999679, 2055.087454, 109.230791)"/><path d="M -0.00194577 -0.00000637039 C -0.00194577 -1.566916 -1.267978 -2.832948 -2.834887 -2.832948 C -4.401797 -2.832948 -5.667829 -1.566916 -5.667829 -0.00000637039 C -5.667829 1.566903 -4.401797 2.836843 -2.834887 2.836843 C -1.267978 2.836843 -0.00194577 1.566903 -0.00194577 -0.00000637039 Z M -0.00194577 -0.00000637039 " transform="matrix(0.999679, 0, 0, -0.999679, 2075.318351, 88.999994)"/><path d="M 0.000750595 -0.000742779 C 0.000750595 -1.563745 -1.269189 -2.833684 -2.836098 -2.833684 C -4.399101 -2.833684 -5.66904 -1.563745 -5.66904 -0.000742779 C -5.66904 1.566167 -4.399101 2.836106 -2.836098 2.836106 C -1.269189 2.836106 0.000750595 1.566167 0.000750595 -0.000742779 Z M 0.000750595 -0.000742779 " transform="matrix(0.999679, 0, 0, -0.999679, 1220.581281, 1208.034414)"/><path d="M 0.00146086 -0.00015664 C 0.00146086 -1.563159 -1.268478 -2.833098 -2.835388 -2.833098 C -4.39839 -2.833098 -5.66833 -1.563159 -5.66833 -0.00015664 C -5.66833 1.566753 -4.39839 2.836692 -2.835388 2.836692 C -1.268478 2.836692 0.00146086 1.566753 0.00146086 -0.00015664 Z M 0.00146086 -0.00015664 " transform="matrix(0.999679, 0, 0, -0.999679, 893.275883, 1575.218593)"/><path d="M -0.000967087 0.0016235 C -0.000967087 -1.565286 -1.270906 -2.835226 -2.833909 -2.835226 C -4.400818 -2.835226 -5.670758 -1.565286 -5.670758 0.0016235 C -5.670758 1.564626 -4.400818 2.834565 -2.833909 2.834565 C -1.270906 2.834565 -0.000967087 1.564626 -0.000967087 0.0016235 Z M -0.000967087 0.0016235 " transform="matrix(0.999679, 0, 0, -0.999679, 750.348623, 1636.747717)"/><path d="M -0.00183512 0.0016235 C -0.00183512 -1.565286 -1.267867 -2.835226 -2.834777 -2.835226 C -4.401686 -2.835226 -5.667718 -1.565286 -5.667718 0.0016235 C -5.667718 1.564626 -4.401686 2.834565 -2.834777 2.834565 C -1.267867 2.834565 -0.00183512 1.564626 -0.00183512 0.0016235 Z M -0.00183512 0.0016235 " transform="matrix(0.999679, 0, 0, -0.999679, 712.997928, 1636.747717)"/><path d="M -0.000533377 0.0016235 C -0.000533377 -1.565286 -1.270473 -2.835226 -2.833475 -2.835226 C -4.400385 -2.835226 -5.670324 -1.565286 -5.670324 0.0016235 C -5.670324 1.564626 -4.400385 2.834565 -2.833475 2.834565 C -1.270473 2.834565 -0.000533377 1.564626 -0.000533377 0.0016235 Z M -0.000533377 0.0016235 " transform="matrix(0.999679, 0, 0, -0.999679, 679.012252, 1636.747717)"/><path d="M -0.000153661 0.0016235 C -0.000153661 -1.565286 -1.270093 -2.835226 -2.833095 -2.835226 C -4.400005 -2.835226 -5.669944 -1.565286 -5.669944 0.0016235 C -5.669944 1.564626 -4.400005 2.834565 -2.833095 2.834565 C -1.270093 2.834565 -0.000153661 1.564626 -0.000153661 0.0016235 Z M -0.000153661 0.0016235 " transform="matrix(0.999679, 0, 0, -0.999679, 589.015779, 1636.747717)"/><path d="M -0.000955904 0.0016235 C -0.000955904 -1.565286 -1.270895 -2.835226 -2.833897 -2.835226 C -4.400807 -2.835226 -5.670746 -1.565286 -5.670746 0.0016235 C -5.670746 1.564626 -4.400807 2.834565 -2.833897 2.834565 C -1.270895 2.834565 -0.000955904 1.564626 -0.000955904 0.0016235 Z M -0.000955904 0.0016235 " transform="matrix(0.999679, 0, 0, -0.999679, 490.598612, 1636.747717)"/><path d="M 0.0000878401 0.0016235 C 0.0000878401 -1.565286 -1.269851 -2.835226 -2.836761 -2.835226 C -4.399763 -2.835226 -5.669703 -1.565286 -5.669703 0.0016235 C -5.669703 1.564626 -4.399763 2.834565 -2.836761 2.834565 C -1.269851 2.834565 0.0000878401 1.564626 0.0000878401 0.0016235 Z M 0.0000878401 0.0016235 " transform="matrix(0.999679, 0, 0, -0.999679, 433.371006, 1636.747717)"/><path d="M 0.00155764 0.0016235 C 0.00155764 -1.565286 -1.268382 -2.835226 -2.835291 -2.835226 C -4.398294 -2.835226 -5.668233 -1.565286 -5.668233 0.0016235 C -5.668233 1.564626 -4.398294 2.834565 -2.835291 2.834565 C -1.268382 2.834565 0.00155764 1.564626 0.00155764 0.0016235 Z M 0.00155764 0.0016235 " transform="matrix(0.999679, 0, 0, -0.999679, 376.885162, 1636.747717)"/><path d="M -0.000730414 0.0016235 C -0.000730414 -1.565286 -1.27067 -2.835226 -2.833672 -2.835226 C -4.400582 -2.835226 -5.670521 -1.565286 -5.670521 0.0016235 C -5.670521 1.564626 -4.400582 2.834565 -2.833672 2.834565 C -1.27067 2.834565 -0.000730414 1.564626 -0.000730414 0.0016235 Z M -0.000730414 0.0016235 " transform="matrix(0.999679, 0, 0, -0.999679, 318.395261, 1636.747717)"/><path d="M -0.000390722 0.000829112 C -0.000390722 -1.562173 -1.27033 -2.83602 -2.833332 -2.83602 C -4.400242 -2.83602 -5.670181 -1.562173 -5.670181 0.000829112 C -5.670181 1.567739 -4.400242 2.833771 -2.833332 2.833771 C -1.27033 2.833771 -0.000390722 1.567739 -0.000390722 0.000829112 Z M -0.000390722 0.000829112 " transform="matrix(0.999679, 0, 0, -0.999679, 779.480859, 1778.930516)"/><path d="M 0.0010365 0.000837819 C 0.0010365 -1.566072 -1.268903 -2.836011 -2.835813 -2.836011 C -4.398815 -2.836011 -5.668754 -1.566072 -5.668754 0.000837819 C -5.668754 1.56384 -4.398815 2.833779 -2.835813 2.833779 C -1.268903 2.833779 0.0010365 1.56384 0.0010365 0.000837819 Z M 0.0010365 0.000837819 " transform="matrix(0.999679, 0, 0, -0.999679, 726.459901, 1827.379744)"/><path d="M -0.000892999 0.000141261 C -0.000892999 -1.566768 -1.270832 -2.836708 -2.833835 -2.836708 C -4.400744 -2.836708 -5.670684 -1.566768 -5.670684 0.000141261 C -5.670684 1.567051 -4.400744 2.833083 -2.833835 2.833083 C -1.270832 2.833083 -0.000892999 1.567051 -0.000892999 0.000141261 Z M -0.000892999 0.000141261 " transform="matrix(0.999679, 0, 0, -0.999679, 800.766518, 1902.425922)"/><path d="M -0.000783677 -0.000368061 C -0.000783677 -1.567278 -1.270723 -2.83331 -2.833725 -2.83331 C -4.400635 -2.83331 -5.670574 -1.567278 -5.670574 -0.000368061 C -5.670574 1.566542 -4.400635 2.836481 -2.833725 2.836481 C -1.270723 2.836481 -0.000783677 1.566542 -0.000783677 -0.000368061 Z M -0.000783677 -0.000368061 " transform="matrix(0.999679, 0, 0, -0.999679, 839.024221, 1940.683226)"/><path d="M -0.000774355 0.000022617 C -0.000774355 -1.566887 -1.270714 -2.836826 -2.833716 -2.836826 C -4.400626 -2.836826 -5.670565 -1.56298 -5.670565 0.000022617 C -5.670565 1.566932 -4.400626 2.836872 -2.833716 2.836872 C -1.270714 2.836872 -0.000774355 1.566932 -0.000774355 0.000022617 Z M -0.000774355 0.000022617 " transform="matrix(0.999679, 0, 0, -0.999679, 877.282024, 1978.941429)"/><path d="M -0.000665033 -0.000586705 C -0.000665033 -1.567496 -1.270604 -2.833528 -2.833607 -2.833528 C -4.400516 -2.833528 -5.670456 -1.563589 -5.670456 -0.000586705 C -5.670456 1.566323 -4.400516 2.836262 -2.833607 2.836262 C -1.270604 2.836262 -0.000665033 1.566323 -0.000665033 -0.000586705 Z M -0.000665033 -0.000586705 " transform="matrix(0.999679, 0, 0, -0.999679, 915.539727, 2017.198632)"/><path d="M 0.00119797 -0.000482158 C 0.00119797 -1.563484 -1.268741 -2.833424 -2.835651 -2.833424 C -4.398653 -2.833424 -5.668593 -1.563484 -5.668593 -0.000482158 C -5.668593 1.566428 -4.398653 2.836367 -2.835651 2.836367 C -1.268741 2.836367 0.00119797 1.566428 0.00119797 -0.000482158 Z M 0.00119797 -0.000482158 " transform="matrix(0.999679, 0, 0, -0.999679, 1021.533959, 2123.159674)"/><path d="M -0.0015082 0.001709 C -0.0015082 -1.565201 -1.26754 -2.83514 -2.83445 -2.83514 C -4.401359 -2.83514 -5.667391 -1.565201 -5.667391 0.001709 C -5.667391 1.564711 -4.401359 2.834651 -2.83445 2.834651 C -1.26754 2.834651 -0.0015082 1.564711 -0.0015082 0.001709 Z M -0.0015082 0.001709 " transform="matrix(0.999679, 0, 0, -0.999679, 1054.16557, 2155.798583)"/><path d="M 0.000193134 0.000992655 C 0.000193134 -1.565917 -1.269746 -2.835856 -2.836656 -2.835856 C -4.399658 -2.835856 -5.669597 -1.565917 -5.669597 0.000992655 C -5.669597 1.563995 -4.399658 2.833934 -2.836656 2.833934 C -1.269746 2.833934 0.000193134 1.563995 0.000193134 0.000992655 Z M 0.000193134 0.000992655 " transform="matrix(0.999679, 0, 0, -0.999679, 1086.796682, 2188.438492)"/><path d="M 0.00139447 0.000276309 C 0.00139447 -1.566633 -1.268545 -2.836573 -2.835455 -2.836573 C -4.398457 -2.836573 -5.668396 -1.566633 -5.668396 0.000276309 C -5.668396 1.563279 -4.398457 2.833218 -2.835455 2.833218 C -1.268545 2.833218 0.00139447 1.563279 0.00139447 0.000276309 Z M 0.00139447 0.000276309 " transform="matrix(0.999679, 0, 0, -0.999679, 1119.428293, 2221.078401)"/><path d="M -0.000811701 -0.000440037 C -0.000811701 -1.56735 -1.270751 -2.833382 -2.833753 -2.833382 C -4.400663 -2.833382 -5.670602 -1.56735 -5.670602 -0.000440037 C -5.670602 1.56647 -4.400663 2.836409 -2.833753 2.836409 C -1.270751 2.836409 -0.000811701 1.56647 -0.000811701 -0.000440037 Z M -0.000811701 -0.000440037 " transform="matrix(0.999679, 0, 0, -0.999679, 1152.059405, 2253.71831)"/><path d="M 0.000243131 0.00080071 C 0.000243131 -1.566109 -1.269696 -2.836048 -2.836606 -2.836048 C -4.399608 -2.836048 -5.669547 -1.566109 -5.669547 0.00080071 C -5.669547 1.56771 -4.399608 2.833742 -2.836606 2.833742 C -1.269696 2.833742 0.000243131 1.56771 0.000243131 0.00080071 Z M 0.000243131 0.00080071 " transform="matrix(0.999679, 0, 0, -0.999679, 1164.265382, 2328.903144)"/><path d="M 0.00186242 0.00192 C 0.00186242 -1.56499 -1.268077 -2.834929 -2.834987 -2.834929 C -4.401896 -2.834929 -5.667928 -1.56499 -5.667928 0.00192 C -5.667928 1.564922 -4.401896 2.834862 -2.834987 2.834862 C -1.268077 2.834862 0.00186242 1.564922 0.00186242 0.00192 Z M 0.00186242 0.00192 " transform="matrix(0.999679, 0, 0, -0.999679, 1082.771576, 2410.396451)"/><path d="M -0.000761029 0.00089655 C -0.000761029 -1.562106 -1.2707 -2.835952 -2.833703 -2.835952 C -4.400612 -2.835952 -5.670552 -1.562106 -5.670552 0.00089655 C -5.670552 1.567806 -4.400612 2.833838 -2.833703 2.833838 C -1.2707 2.833838 -0.000761029 1.567806 -0.000761029 0.00089655 Z M -0.000761029 0.00089655 " transform="matrix(0.999679, 0, 0, -0.999679, 1106.754667, 2386.414959)"/><path d="M -0.000521634 0.0000359449 C -0.000521634 -1.566874 -1.270461 -2.836813 -2.833463 -2.836813 C -4.400373 -2.836813 -5.670312 -1.566874 -5.670312 0.0000359449 C -5.670312 1.566946 -4.400373 2.836885 -2.833463 2.836885 C -1.270461 2.836885 -0.000521634 1.566946 -0.000521634 0.0000359449 Z M -0.000521634 0.0000359449 " transform="matrix(0.999679, 0, 0, -0.999679, 1058.789584, 2434.378942)"/><path d="M 0.00162314 -0.00107645 C 0.00162314 -1.564079 -1.268316 -2.834018 -2.835226 -2.834018 C -4.398228 -2.834018 -5.668167 -1.564079 -5.668167 -0.00107645 C -5.668167 1.565833 -4.398228 2.835773 -2.835226 2.835773 C -1.268316 2.835773 0.00162314 1.565833 0.00162314 -0.00107645 Z M 0.00162314 -0.00107645 " transform="matrix(0.999679, 0, 0, -0.999679, 1053.346034, 788.049705)"/><path d="M -0.000160947 -0.00165757 C -0.000160947 -1.56466 -1.2701 -2.834599 -2.833102 -2.834599 C -4.400012 -2.834599 -5.669951 -1.56466 -5.669951 -0.00165757 C -5.669951 1.565252 -4.400012 2.835191 -2.833102 2.835191 C -1.2701 2.835191 -0.000160947 1.565252 -0.000160947 -0.00165757 Z M -0.000160947 -0.00165757 " transform="matrix(0.999679, 0, 0, -0.999679, 1274.078286, 741.30303)"/><path d="M 0.00126559 -0.00165757 C 0.00126559 -1.56466 -1.268674 -2.834599 -2.835583 -2.834599 C -4.398586 -2.834599 -5.668525 -1.56466 -5.668525 -0.00165757 C -5.668525 1.565252 -4.398586 2.835191 -2.835583 2.835191 C -1.268674 2.835191 0.00126559 1.565252 0.00126559 -0.00165757 Z M 0.00126559 -0.00165757 " transform="matrix(0.999679, 0, 0, -0.999679, 1653.705766, 741.30303)"/><path d="M -0.000847108 0.00130243 C -0.000847108 -1.565607 -1.270786 -2.835547 -2.833789 -2.835547 C -4.400698 -2.835547 -5.670638 -1.565607 -5.670638 0.00130243 C -5.670638 1.564305 -4.400698 2.834244 -2.833789 2.834244 C -1.270786 2.834244 -0.000847108 1.564305 -0.000847108 0.00130243 Z M -0.000847108 0.00130243 " transform="matrix(0.999679, 0, 0, -0.999679, 1762.735222, 653.266927)"/><path d="M 0.000152892 -0.000653589 C 0.000152892 -1.567563 -1.269786 -2.833595 -2.836696 -2.833595 C -4.399698 -2.833595 -5.669638 -1.567563 -5.669638 -0.000653589 C -5.669638 1.566256 -4.399698 2.836195 -2.836696 2.836195 C -1.269786 2.836195 0.000152892 1.566256 0.000152892 -0.000653589 Z M 0.000152892 -0.000653589 " transform="matrix(0.999679, 0, 0, -0.999679, 1762.734222, 615.249347)"/><path d="M 0.00116283 -0.00102601 C 0.00116283 -1.564028 -1.268776 -2.833968 -2.835686 -2.833968 C -4.398688 -2.833968 -5.668628 -1.564028 -5.668628 -0.00102601 C -5.668628 1.565884 -4.398688 2.835823 -2.835686 2.835823 C -1.268776 2.835823 0.00116283 1.565884 0.00116283 -0.00102601 Z M 0.00116283 -0.00102601 " transform="matrix(0.999679, 0, 0, -0.999679, 1762.686338, 523.635693)"/><path d="M -0.000847108 -0.0000972624 C -0.000847108 -1.563099 -1.270786 -2.833039 -2.833789 -2.833039 C -4.400698 -2.833039 -5.670638 -1.563099 -5.670638 -0.0000972624 C -5.670638 1.566812 -4.400698 2.836752 -2.833789 2.836752 C -1.270786 2.836752 -0.000847108 1.566812 -0.000847108 -0.0000972624 Z M -0.000847108 -0.0000972624 " transform="matrix(0.999679, 0, 0, -0.999679, 1762.735222, 485.785059)"/><path d="M -0.000847108 0.00185951 C -0.000847108 -1.56505 -1.270786 -2.83499 -2.833789 -2.83499 C -4.400698 -2.83499 -5.670638 -1.56505 -5.670638 0.00185951 C -5.670638 1.564862 -4.400698 2.834801 -2.833789 2.834801 C -1.270786 2.834801 -0.000847108 1.564862 -0.000847108 0.00185951 Z M -0.000847108 0.00185951 " transform="matrix(0.999679, 0, 0, -0.999679, 1762.735222, 449.326078)"/><path d="M 0.000632723 -0.00108922 C 0.000632723 -1.564091 -1.269307 -2.834031 -2.836216 -2.834031 C -4.399219 -2.834031 -5.669158 -1.564091 -5.669158 -0.00108922 C -5.669158 1.56582 -4.399219 2.83576 -2.836216 2.83576 C -1.269307 2.83576 0.000632723 1.56582 0.000632723 -0.00108922 Z M 0.000632723 -0.00108922 " transform="matrix(0.999679, 0, 0, -0.999679, 2405.268899, 68.120005)"/><path d="M -0.00173754 -0.00108922 C -0.00173754 -1.564091 -1.271677 -2.834031 -2.834679 -2.834031 C -4.401589 -2.834031 -5.667621 -1.564091 -5.667621 -0.00108922 C -5.667621 1.56582 -4.401589 2.83576 -2.834679 2.83576 C -1.271677 2.83576 -0.00173754 1.56582 -0.00173754 -0.00108922 Z M -0.00173754 -0.00108922 " transform="matrix(0.999679, 0, 0, -0.999679, 2364.587674, 68.120005)"/><path d="M -0.00138155 -0.00108922 C -0.00138155 -1.564091 -1.271321 -2.834031 -2.834323 -2.834031 C -4.401233 -2.834031 -5.671172 -1.564091 -5.671172 -0.00108922 C -5.671172 1.56582 -4.401233 2.83576 -2.834323 2.83576 C -1.271321 2.83576 -0.00138155 1.56582 -0.00138155 -0.00108922 Z M -0.00138155 -0.00108922 " transform="matrix(0.999679, 0, 0, -0.999679, 2323.032631, 68.120005)"/><path d="M 0.000794095 -0.00108922 C 0.000794095 -1.564091 -1.269145 -2.834031 -2.836055 -2.834031 C -4.399057 -2.834031 -5.668996 -1.564091 -5.668996 -0.00108922 C -5.668996 1.56582 -4.399057 2.83576 -2.836055 2.83576 C -1.269145 2.83576 0.000794095 1.56582 0.000794095 -0.00108922 Z M 0.000794095 -0.00108922 " transform="matrix(0.999679, 0, 0, -0.999679, 2281.225769, 68.120005)"/><path d="M -0.000897591 -0.00108922 C -0.000897591 -1.564091 -1.270837 -2.834031 -2.833839 -2.834031 C -4.400749 -2.834031 -5.670688 -1.564091 -5.670688 -0.00108922 C -5.670688 1.56582 -4.400749 2.83576 -2.833839 2.83576 C -1.270837 2.83576 -0.000897591 1.56582 -0.000897591 -0.00108922 Z M -0.000897591 -0.00108922 " transform="matrix(0.999679, 0, 0, -0.999679, 2239.543866, 68.120005)"/><path d="M 0.000418228 -0.00108922 C 0.000418228 -1.564091 -1.269521 -2.834031 -2.832523 -2.834031 C -4.399433 -2.834031 -5.669372 -1.564091 -5.669372 -0.00108922 C -5.669372 1.56582 -4.399433 2.83576 -2.832523 2.83576 C -1.269521 2.83576 0.000418228 1.56582 0.000418228 -0.00108922 Z M 0.000418228 -0.00108922 " transform="matrix(0.999679, 0, 0, -0.999679, 2197.862863, 68.120005)"/><path d="M 0.00163405 -0.00108922 C 0.00163405 -1.564091 -1.268305 -2.834031 -2.835215 -2.834031 C -4.398217 -2.834031 -5.668157 -1.564091 -5.668157 -0.00108922 C -5.668157 1.56582 -4.398217 2.83576 -2.835215 2.83576 C -1.268305 2.83576 0.00163405 1.56582 0.00163405 -0.00108922 Z M 0.00163405 -0.00108922 " transform="matrix(0.999679, 0, 0, -0.999679, 2156.18196, 68.120005)"/><path d="M -0.0000576384 -0.00108922 C -0.0000576384 -1.564091 -1.269997 -2.834031 -2.832999 -2.834031 C -4.399909 -2.834031 -5.669848 -1.564091 -5.669848 -0.00108922 C -5.669848 1.56582 -4.399909 2.83576 -2.832999 2.83576 C -1.269997 2.83576 -0.0000576384 1.56582 -0.0000576384 -0.00108922 Z M -0.0000576384 -0.00108922 " transform="matrix(0.999679, 0, 0, -0.999679, 2114.500058, 68.120005)"/><path d="M -0.00185621 0.0016949 C -0.00185621 -1.565215 -1.267888 -2.835154 -2.834798 -2.835154 C -4.401707 -2.835154 -5.667739 -1.565215 -5.667739 0.0016949 C -5.667739 1.564697 -4.401707 2.834636 -2.834798 2.834636 C -1.267888 2.834636 -0.00185621 1.564697 -0.00185621 0.0016949 Z M -0.00185621 0.0016949 " transform="matrix(0.999679, 0, 0, -0.999679, 229.802637, 1839.997788)"/><path d="M -0.00185621 0.0003353 C -0.00185621 -1.566574 -1.267888 -2.836514 -2.834798 -2.836514 C -4.401707 -2.836514 -5.667739 -1.566574 -5.667739 0.0003353 C -5.667739 1.563338 -4.401707 2.833277 -2.834798 2.833277 C -1.267888 2.833277 -0.00185621 1.563338 -0.00185621 0.0003353 Z M -0.00185621 0.0003353 " transform="matrix(0.999679, 0, 0, -0.999679, 229.802637, 1871.410491)"/><path d="M -0.00185621 0.0000756952 C -0.00185621 -1.566834 -1.267888 -2.836773 -2.834798 -2.836773 C -4.401707 -2.836773 -5.667739 -1.566834 -5.667739 0.0000756952 C -5.667739 1.563078 -4.401707 2.836925 -2.834798 2.836925 C -1.267888 2.836925 -0.00185621 1.563078 -0.00185621 0.0000756952 Z M -0.00185621 0.0000756952 " transform="matrix(0.999679, 0, 0, -0.999679, 229.802637, 1902.824294)"/><path d="M -0.00185621 -0.000283909 C -0.00185621 -1.563286 -1.267888 -2.833225 -2.834798 -2.833225 C -4.401707 -2.833225 -5.667739 -1.563286 -5.667739 -0.000283909 C -5.667739 1.566626 -4.401707 2.836565 -2.834798 2.836565 C -1.267888 2.836565 -0.00185621 1.566626 -0.00185621 -0.000283909 Z M -0.00185621 -0.000283909 " transform="matrix(0.999679, 0, 0, -0.999679, 229.802637, 1934.237997)"/><path d="M -0.00185621 0.00194583 C -0.00185621 -1.564964 -1.267888 -2.834903 -2.834798 -2.834903 C -4.401707 -2.834903 -5.667739 -1.564964 -5.667739 0.00194583 C -5.667739 1.564948 -4.401707 2.834887 -2.834798 2.834887 C -1.267888 2.834887 -0.00185621 1.564948 -0.00185621 0.00194583 Z M -0.00185621 0.00194583 " transform="matrix(0.999679, 0, 0, -0.999679, 229.802637, 1663.279289)"/><path d="M -0.00185621 0.00160168 C -0.00185621 -1.565308 -1.267888 -2.835247 -2.834798 -2.835247 C -4.401707 -2.835247 -5.667739 -1.565308 -5.667739 0.00160168 C -5.667739 1.564604 -4.401707 2.834543 -2.834798 2.834543 C -1.267888 2.834543 -0.00185621 1.564604 -0.00185621 0.00160168 Z M -0.00185621 0.00160168 " transform="matrix(0.999679, 0, 0, -0.999679, 229.802637, 1694.372695)"/><path d="M -0.00185621 0.000357526 C -0.00185621 -1.566552 -1.267888 -2.836492 -2.834798 -2.836492 C -4.401707 -2.836492 -5.667739 -1.562645 -5.667739 0.000357526 C -5.667739 1.567267 -4.401707 2.833299 -2.834798 2.833299 C -1.267888 2.833299 -0.00185621 1.567267 -0.00185621 0.000357526 Z M -0.00185621 0.000357526 " transform="matrix(0.999679, 0, 0, -0.999679, 229.802637, 1725.465201)"/><path d="M -0.0000759782 -0.000928219 C -0.0000759782 -1.567838 -1.270015 -2.83387 -2.836925 -2.83387 C -4.399927 -2.83387 -5.669867 -1.567838 -5.669867 -0.000928219 C -5.669867 1.565982 -4.399927 2.835921 -2.836925 2.835921 C -1.270015 2.835921 -0.0000759782 1.565982 -0.0000759782 -0.000928219 Z M -0.0000759782 -0.000928219 " transform="matrix(0.999679, 0, 0, -0.999679, 1208.910232, 2361.600635)"/><path d="M 0.00110182 -0.00174811 C 0.00110182 -1.56475 -1.268837 -2.83469 -2.835747 -2.83469 C -4.398749 -2.83469 -5.668689 -1.56475 -5.668689 -0.00174811 C -5.668689 1.565162 -4.398749 2.835101 -2.835747 2.835101 C -1.268837 2.835101 0.00110182 1.565162 0.00110182 -0.00174811 Z M 0.00110182 -0.00174811 " transform="matrix(0.999679, 0, 0, -0.999679, 1034.807492, 2458.361534)"/><path d="M 0.00106978 -0.000544858 C 0.00106978 -1.567455 -1.26887 -2.833486 -2.835779 -2.833486 C -4.398781 -2.833486 -5.668721 -1.567455 -5.668721 -0.000544858 C -5.668721 1.566365 -4.398781 2.836304 -2.835779 2.836304 C -1.26887 2.836304 0.00106978 1.566365 0.00106978 -0.000544858 Z M 0.00106978 -0.000544858 " transform="matrix(0.999679, 0, 0, -0.999679, 999.920806, 2466.636174)"/><path d="M 0.000821161 -0.000544858 C 0.000821161 -1.567455 -1.269118 -2.833486 -2.836028 -2.833486 C -4.39903 -2.833486 -5.668969 -1.567455 -5.668969 -0.000544858 C -5.668969 1.566365 -4.39903 2.836304 -2.836028 2.836304 C -1.269118 2.836304 0.000821161 1.566365 0.000821161 -0.000544858 Z M 0.000821161 -0.000544858 " transform="matrix(0.999679, 0, 0, -0.999679, 898.772617, 2466.636174)"/><path d="M -0.000333018 -0.000544858 C -0.000333018 -1.567455 -1.270272 -2.833486 -2.833275 -2.833486 C -4.400184 -2.833486 -5.670124 -1.567455 -5.670124 -0.000544858 C -5.670124 1.566365 -4.400184 2.836304 -2.833275 2.836304 C -1.270272 2.836304 -0.000333018 1.566365 -0.000333018 -0.000544858 Z M -0.000333018 -0.000544858 " transform="matrix(0.999679, 0, 0, -0.999679, 791.949552, 2466.636174)"/><path d="M -0.00187174 -0.000544858 C -0.00187174 -1.567455 -1.267904 -2.833486 -2.834813 -2.833486 C -4.401723 -2.833486 -5.667755 -1.567455 -5.667755 -0.000544858 C -5.667755 1.566365 -4.401723 2.836304 -2.834813 2.836304 C -1.267904 2.836304 -0.00187174 1.566365 -0.00187174 -0.000544858 Z M -0.00187174 -0.000544858 " transform="matrix(0.999679, 0, 0, -0.999679, 685.447184, 2466.636174)"/><path d="M 0.00000227189 -0.000544858 C 0.00000227189 -1.567455 -1.269937 -2.833486 -2.836847 -2.833486 C -4.399849 -2.833486 -5.669788 -1.567455 -5.669788 -0.000544858 C -5.669788 1.566365 -4.399849 2.836304 -2.836847 2.836304 C -1.269937 2.836304 0.00000227189 1.566365 0.00000227189 -0.000544858 Z M 0.00000227189 -0.000544858 " transform="matrix(0.999679, 0, 0, -0.999679, 631.929685, 2466.636174)"/><path d="M 0.00189218 -0.000544858 C 0.00189218 -1.567455 -1.268047 -2.833486 -2.834957 -2.833486 C -4.401867 -2.833486 -5.667898 -1.567455 -5.667898 -0.000544858 C -5.667898 1.566365 -4.401867 2.836304 -2.834957 2.836304 C -1.268047 2.836304 0.00189218 1.566365 0.00189218 -0.000544858 Z M 0.00189218 -0.000544858 " transform="matrix(0.999679, 0, 0, -0.999679, 952.310608, 2466.636174)"/><path d="M 0.00171791 -0.000544858 C 0.00171791 -1.567455 -1.268221 -2.833486 -2.835131 -2.833486 C -4.398133 -2.833486 -5.668073 -1.567455 -5.668073 -0.000544858 C -5.668073 1.566365 -4.398133 2.836304 -2.835131 2.836304 C -1.268221 2.836304 0.00171791 1.566365 0.00171791 -0.000544858 Z M 0.00171791 -0.000544858 " transform="matrix(0.999679, 0, 0, -0.999679, 845.424064, 2466.636174)"/><path d="M -0.00023825 -0.000544858 C -0.00023825 -1.567455 -1.270178 -2.833486 -2.83318 -2.833486 C -4.400089 -2.833486 -5.670029 -1.567455 -5.670029 -0.000544858 C -5.670029 1.566365 -4.400089 2.836304 -2.83318 2.836304 C -1.270178 2.836304 -0.00023825 1.566365 -0.00023825 -0.000544858 Z M -0.00023825 -0.000544858 " transform="matrix(0.999679, 0, 0, -0.999679, 738.965082, 2466.636174)"/><path d="M 0.000190345 -0.000544858 C 0.000190345 -1.567455 -1.269749 -2.833486 -2.836659 -2.833486 C -4.399661 -2.833486 -5.6696 -1.567455 -5.6696 -0.000544858 C -5.6696 1.566365 -4.399661 2.836304 -2.836659 2.836304 C -1.269749 2.836304 0.000190345 1.566365 0.000190345 -0.000544858 Z M 0.000190345 -0.000544858 " transform="matrix(0.999679, 0, 0, -0.999679, 257.304497, 2466.636174)"/><path d="M 0.00172384 -0.000544858 C 0.00172384 -1.567455 -1.268215 -2.833486 -2.835125 -2.833486 C -4.398127 -2.833486 -5.668067 -1.567455 -5.668067 -0.000544858 C -5.668067 1.566365 -4.398127 2.836304 -2.835125 2.836304 C -1.268215 2.836304 0.00172384 1.566365 0.00172384 -0.000544858 Z M 0.00172384 -0.000544858 " transform="matrix(0.999679, 0, 0, -0.999679, 310.822495, 2466.636174)"/><path d="M -0.000550177 -0.000544858 C -0.000550177 -1.567455 -1.270489 -2.833486 -2.833492 -2.833486 C -4.400401 -2.833486 -5.670341 -1.567455 -5.670341 -0.000544858 C -5.670341 1.566365 -4.400401 2.836304 -2.833492 2.836304 C -1.270489 2.836304 -0.000550177 1.566365 -0.000550177 -0.000544858 Z M -0.000550177 -0.000544858 " transform="matrix(0.999679, 0, 0, -0.999679, 364.340394, 2466.636174)"/><path d="M 0.00148332 -0.000544858 C 0.00148332 -1.567455 -1.268456 -2.833486 -2.835366 -2.833486 C -4.398368 -2.833486 -5.668307 -1.567455 -5.668307 -0.000544858 C -5.668307 1.566365 -4.398368 2.836304 -2.835366 2.836304 C -1.268456 2.836304 0.00148332 1.566365 0.00148332 -0.000544858 Z M 0.00148332 -0.000544858 " transform="matrix(0.999679, 0, 0, -0.999679, 417.857892, 2466.636174)"/><path d="M -0.000790698 -0.000544858 C -0.000790698 -1.567455 -1.27073 -2.833486 -2.833732 -2.833486 C -4.400642 -2.833486 -5.670581 -1.567455 -5.670581 -0.000544858 C -5.670581 1.566365 -4.400642 2.836304 -2.833732 2.836304 C -1.27073 2.836304 -0.000790698 1.566365 -0.000790698 -0.000544858 Z M -0.000790698 -0.000544858 " transform="matrix(0.999679, 0, 0, -0.999679, 471.37579, 2466.636174)"/><path d="M -0.00163122 -0.000544858 C -0.00163122 -1.567455 -1.267663 -2.833486 -2.834573 -2.833486 C -4.401482 -2.833486 -5.667514 -1.567455 -5.667514 -0.000544858 C -5.667514 1.562457 -4.401482 2.836304 -2.834573 2.836304 C -1.267663 2.836304 -0.00163122 1.566365 -0.00163122 -0.000544858 Z M -0.00163122 -0.000544858 " transform="matrix(0.999679, 0, 0, -0.999679, 578.411787, 2466.636174)"/><path d="M 0.000742794 -0.000544858 C 0.000742794 -1.567455 -1.269197 -2.833486 -2.836106 -2.833486 C -4.399108 -2.833486 -5.669048 -1.567455 -5.669048 -0.000544858 C -5.669048 1.566365 -4.399108 2.836304 -2.836106 2.836304 C -1.269197 2.836304 0.000742794 1.566365 0.000742794 -0.000544858 Z M 0.000742794 -0.000544858 " transform="matrix(0.999679, 0, 0, -0.999679, 524.893789, 2466.636174)"/><path d="M 0.000491874 -0.000010657 L 45.065753 -0.000010657 " transform="matrix(0.999679, 0, 0, -0.999679, 566.503415, 70.890614)"/></g><g id="seoul-2"><path d="M -0.00109633 0.000783422 L -0.00109633 -77.672612 C -0.00109633 -81.431632 1.495478 -85.03826 4.152582 -87.695364 L 225.645626 -309.114165 C 228.314453 -311.782992 231.932803 -313.275659 235.707453 -313.263936 L 260.477131 -313.189694 " transform="matrix(0.999679, 0, 0, -0.999679, 580.094846, 1311.071096)"/><path d="M 0.000360661 0.00123244 C 0.000360661 -289.884882 -235.00093 -524.886173 -524.887044 -524.886173 C -814.773158 -524.886173 -1049.770542 -289.884882 -1049.770542 0.00123244 C -1049.770542 279.821612 -830.809561 508.500559 -554.873242 524.044616 C -544.948178 524.60339 -534.948871 524.88473 -524.887044 524.88473 C -477.94618 524.88473 -432.447186 518.726501 -389.148117 507.164192 C -165.056581 447.34419 0.000360661 242.946482 0.000360661 0.00123244 Z M 0.000360661 0.00123244 " transform="matrix(0.999679, 0, 0, -0.999679, 1799.898077, 1339.93092)"/><path d="M -0.000178398 -0.00123724 L 85.261593 85.260534 C 90.79462 90.797469 90.79462 99.769102 85.261593 105.30213 L -195.891246 386.454969 " transform="matrix(0.999679, 0, 0, -0.999679, 1770.629085, 1142.506576)"/><path d="M -0.000792567 0.00109668 C -0.000792567 -1.565813 -1.270732 -2.835752 -2.833734 -2.835752 C -4.400644 -2.835752 -5.670583 -1.565813 -5.670583 0.00109668 C -5.670583 1.564099 -4.400644 2.834038 -2.833734 2.834038 C -1.270732 2.834038 -0.000792567 1.564099 -0.000792567 0.00109668 Z M -0.000792567 0.00109668 " transform="matrix(0.999679, 0, 0, -0.999679, 1110.953917, 842.192503)"/><path d="M -0.000737598 -0.00179593 C -0.000737598 -1.564798 -1.270677 -2.834737 -2.833679 -2.834737 C -4.400589 -2.834737 -5.670528 -1.564798 -5.670528 -0.00179593 C -5.670528 1.565114 -4.400589 2.835053 -2.833679 2.835053 C -1.270677 2.835053 -0.000737598 1.565114 -0.000737598 -0.00179593 Z M -0.000737598 -0.00179593 " transform="matrix(0.999679, 0, 0, -0.999679, 924.297612, 951.427892)"/><path d="M -0.00190177 -0.00138903 C -0.00190177 -1.564391 -1.267934 -2.834331 -2.834843 -2.834331 C -4.401753 -2.834331 -5.667785 -1.564391 -5.667785 -0.00138903 C -5.667785 1.565521 -4.401753 2.83546 -2.834843 2.83546 C -1.267934 2.83546 -0.00190177 1.565521 -0.00190177 -0.00138903 Z M -0.00190177 -0.00138903 " transform="matrix(0.999679, 0, 0, -0.999679, 872.064401, 1006.436111)"/><path d="M 0.000888272 0.000230483 C 0.000888272 -1.566679 -1.269051 -2.836619 -2.835961 -2.836619 C -4.398963 -2.836619 -5.668902 -1.566679 -5.668902 0.000230483 C -5.668902 1.56714 -4.398963 2.833172 -2.835961 2.833172 C -1.269051 2.833172 0.000888272 1.563233 0.000888272 0.000230483 Z M 0.000888272 0.000230483 " transform="matrix(0.999679, 0, 0, -0.999679, 836.874112, 1056.078355)"/><path d="M -0.00102125 -0.00132585 C -0.00102125 -1.564328 -1.267053 -2.834267 -2.833963 -2.834267 C -4.400872 -2.834267 -5.670812 -1.564328 -5.670812 -0.00132585 C -5.670812 1.565584 -4.400872 2.835523 -2.833963 2.835523 C -1.267053 2.835523 -0.00102125 1.565584 -0.00102125 -0.00132585 Z M -0.00102125 -0.00132585 " transform="matrix(0.999679, 0, 0, -0.999679, 802.001021, 1560.5768)"/><path d="M 0.000340417 0.0000311628 C 0.000340417 -1.566879 -1.269599 -2.836818 -2.836509 -2.836818 C -4.399511 -2.836818 -5.66945 -1.566879 -5.66945 0.0000311628 C -5.66945 1.566941 -4.399511 2.83688 -2.836509 2.83688 C -1.269599 2.83688 0.000340417 1.563033 0.000340417 0.0000311628 Z M 0.000340417 0.0000311628 " transform="matrix(0.999679, 0, 0, -0.999679, 936.984035, 1738.750031)"/><path d="M 0.000720394 0.000919907 C 0.000720394 -1.56599 -1.269219 -2.835929 -2.836129 -2.835929 C -4.399131 -2.835929 -5.66907 -1.56599 -5.66907 0.000919907 C -5.66907 1.563922 -4.399131 2.833861 -2.836129 2.833861 C -1.269219 2.833861 0.000720394 1.563922 0.000720394 0.000919907 Z M 0.000720394 0.000919907 " transform="matrix(0.999679, 0, 0, -0.999679, 977.464124, 1769.567326)"/><path d="M -0.000367504 -0.00054601 C -0.000367504 -1.567456 -1.270307 -2.833488 -2.833309 -2.833488 C -4.400219 -2.833488 -5.670158 -1.563548 -5.670158 -0.00054601 C -5.670158 1.566364 -4.400219 2.836303 -2.833309 2.836303 C -1.270307 2.836303 -0.000367504 1.562456 -0.000367504 -0.00054601 Z M -0.000367504 -0.00054601 " transform="matrix(0.999679, 0, 0, -0.999679, 1065.219117, 1819.511173)"/><path d="M 0.00174877 -0.00153888 C 0.00174877 -1.564541 -1.268191 -2.83448 -2.8351 -2.83448 C -4.398102 -2.83448 -5.668042 -1.564541 -5.668042 -0.00153888 C -5.668042 1.565371 -4.398102 2.83531 -2.8351 2.83531 C -1.268191 2.83531 0.00174877 1.565371 0.00174877 -0.00153888 Z M 0.00174877 -0.00153888 " transform="matrix(0.999679, 0, 0, -0.999679, 1118.935752, 1840.896899)"/><path d="M -0.00165005 -0.00113282 C -0.00165005 -1.564135 -1.271589 -2.834074 -2.834592 -2.834074 C -4.401501 -2.834074 -5.667533 -1.564135 -5.667533 -0.00113282 C -5.667533 1.565777 -4.401501 2.835716 -2.834592 2.835716 C -1.271589 2.835716 -0.00165005 1.565777 -0.00165005 -0.00113282 Z M -0.00165005 -0.00113282 " transform="matrix(0.999679, 0, 0, -0.999679, 1191.958681, 1857.75668)"/><path d="M -0.00124349 0.00181021 C -0.00124349 -1.5651 -1.267275 -2.835039 -2.834185 -2.835039 C -4.397187 -2.835039 -5.667127 -1.5651 -5.667127 0.00181021 C -5.667127 1.564812 -4.397187 2.834752 -2.834185 2.834752 C -1.267275 2.834752 -0.00124349 1.564812 -0.00124349 0.00181021 Z M -0.00124349 0.00181021 " transform="matrix(0.999679, 0, 0, -0.999679, 1339.196556, 1860.911966)"/><path d="M -0.00127736 0.00140166 C -0.00127736 -1.565508 -1.267309 -2.835447 -2.834219 -2.835447 C -4.397221 -2.835447 -5.66716 -1.565508 -5.66716 0.00140166 C -5.66716 1.564404 -4.397221 2.834343 -2.834219 2.834343 C -1.267309 2.834343 -0.00127736 1.564404 -0.00127736 0.00140166 Z M -0.00127736 0.00140166 " transform="matrix(0.999679, 0, 0, -0.999679, 1387.528621, 1852.849057)"/><path d="M -0.00132819 -0.000681474 C -0.00132819 -1.563684 -1.26736 -2.837531 -2.83427 -2.837531 C -4.397272 -2.837531 -5.667211 -1.563684 -5.667211 -0.000681474 C -5.667211 1.566228 -4.397272 2.836168 -2.83427 2.836168 C -1.26736 2.836168 -0.00132819 1.566228 -0.00132819 -0.000681474 Z M -0.00132819 -0.000681474 " transform="matrix(0.999679, 0, 0, -0.999679, 1566.536484, 1777.58135)"/><path d="M -0.00164369 -0.00099662 C -0.00164369 -1.567906 -1.267675 -2.833938 -2.834585 -2.833938 C -4.397587 -2.833938 -5.667527 -1.563999 -5.667527 -0.00099662 C -5.667527 1.565913 -4.397587 2.835852 -2.834585 2.835852 C -1.267675 2.835852 -0.00164369 1.565913 -0.00164369 -0.00099662 Z M -0.00164369 -0.00099662 " transform="matrix(0.999679, 0, 0, -0.999679, 1684.150081, 1672.041972)"/><path d="M 0.00134921 0.000357688 C 0.00134921 -1.566552 -1.26859 -2.836491 -2.8355 -2.836491 C -4.398502 -2.836491 -5.668441 -1.566552 -5.668441 0.000357688 C -5.668441 1.56336 -4.398502 2.833299 -2.8355 2.833299 C -1.26859 2.833299 0.00134921 1.56336 0.00134921 0.000357688 Z M 0.00134921 0.000357688 " transform="matrix(0.999679, 0, 0, -0.999679, 1772.463495, 1515.828483)"/><path d="M 0.000187368 -0.00160796 C 0.000187368 -1.56461 -1.269752 -2.834549 -2.836662 -2.834549 C -4.399664 -2.834549 -5.669603 -1.56461 -5.669603 -0.00160796 C -5.669603 1.565302 -4.399664 2.835241 -2.836662 2.835241 C -1.269752 2.835241 0.000187368 1.565302 0.000187368 -0.00160796 Z M 0.000187368 -0.00160796 " transform="matrix(0.999679, 0, 0, -0.999679, 1799.339656, 1403.599955)"/><path d="M -0.00184617 0.00162856 C -0.00184617 -1.565281 -1.271785 -2.83522 -2.834788 -2.83522 C -4.401697 -2.83522 -5.667729 -1.565281 -5.667729 0.00162856 C -5.667729 1.564631 -4.401697 2.83457 -2.834788 2.83457 C -1.271785 2.83457 -0.00184617 1.564631 -0.00184617 0.00162856 Z M -0.00184617 0.00162856 " transform="matrix(0.999679, 0, 0, -0.999679, 1802.134658, 1326.818034)"/><path d="M 0.000360661 0.000426919 C 0.000360661 -1.566483 -1.269579 -2.836422 -2.836488 -2.836422 C -4.399491 -2.836422 -5.66943 -1.566483 -5.66943 0.000426919 C -5.66943 1.563429 -4.399491 2.833368 -2.836488 2.833368 C -1.269579 2.833368 0.000360661 1.563429 0.000360661 0.000426919 Z M 0.000360661 0.000426919 " transform="matrix(0.999679, 0, 0, -0.999679, 1799.898077, 1278.676208)"/><path d="M -0.00147175 -0.000963033 C -0.00147175 -1.567873 -1.271411 -2.833905 -2.834413 -2.833905 C -4.401323 -2.833905 -5.667355 -1.567873 -5.667355 -0.000963033 C -5.667355 1.565947 -4.401323 2.835886 -2.834413 2.835886 C -1.271411 2.835886 -0.00147175 1.565947 -0.00147175 -0.000963033 Z M -0.00147175 -0.000963033 " transform="matrix(0.999679, 0, 0, -0.999679, 1711.927253, 1044.467787)"/><path d="M -0.000510409 0.00132406 C -0.000510409 -1.565586 -1.27045 -2.835525 -2.833452 -2.835525 C -4.400362 -2.835525 -5.670301 -1.565586 -5.670301 0.00132406 C -5.670301 1.564326 -4.400362 2.834266 -2.833452 2.834266 C -1.27045 2.834266 -0.000510409 1.564326 -0.000510409 0.00132406 Z M -0.000510409 0.00132406 " transform="matrix(0.999679, 0, 0, -0.999679, 1739.28176, 1090.53648)"/><path d="M -0.0000392195 0.00083643 C -0.0000392195 -1.566073 -1.269979 -2.836013 -2.836888 -2.836013 C -4.39989 -2.836013 -5.66983 -1.566073 -5.66983 0.00083643 C -5.66983 1.567746 -4.39989 2.833778 -2.836888 2.833778 C -1.269979 2.833778 -0.0000392195 1.567746 -0.0000392195 0.00083643 Z M -0.0000392195 0.00083643 " transform="matrix(0.999679, 0, 0, -0.999679, 1567.570352, 902.231305)"/><path d="M 0.000649155 0.000553259 C 0.000649155 -1.566356 -1.26929 -2.836296 -2.8362 -2.836296 C -4.399202 -2.836296 -5.669141 -1.566356 -5.669141 0.000553259 C -5.669141 1.567463 -4.399202 2.833495 -2.8362 2.833495 C -1.26929 2.833495 0.000649155 1.567463 0.000649155 0.000553259 Z M 0.000649155 0.000553259 " transform="matrix(0.999679, 0, 0, -0.999679, 737.13607, 1548.879459)"/><path d="M 0.00000508863 0.000122492 C 0.00000508863 -1.566787 -1.269934 -2.836727 -2.836844 -2.836727 C -4.399846 -2.836727 -5.669785 -1.566787 -5.669785 0.000122492 C -5.669785 1.563125 -4.399846 2.833064 -2.836844 2.833064 C -1.269934 2.833064 0.00000508863 1.563125 0.00000508863 0.000122492 Z M 0.00000508863 0.000122492 " transform="matrix(0.999679, 0, 0, -0.999679, 686.73437, 1498.359497)"/><path d="M 0.00174269 -0.000502307 C 0.00174269 -1.563505 -1.268197 -2.833444 -2.835106 -2.833444 C -4.398109 -2.833444 -5.668048 -1.563505 -5.668048 -0.000502307 C -5.668048 1.566407 -4.398109 2.836347 -2.835106 2.836347 C -1.268197 2.836347 0.00174269 1.566407 0.00174269 -0.000502307 Z M 0.00174269 -0.000502307 " transform="matrix(0.999679, 0, 0, -0.999679, 604.052945, 1415.464342)"/><path d="M 0.00163295 0.000420775 C 0.00163295 -1.566489 -1.268306 -2.836428 -2.835216 -2.832521 C -4.398218 -2.832521 -5.668158 -1.566489 -5.668158 0.000420775 C -5.668158 1.56733 -4.398218 2.833362 -2.835216 2.833362 C -1.268306 2.833362 0.00163295 1.56733 0.00163295 0.000420775 Z M 0.00163295 0.000420775 " transform="matrix(0.999679, 0, 0, -0.999679, 1752.209305, 930.863702)"/><path d="M -0.00185137 0.0000602858 C -0.00185137 -1.566849 -1.267883 -2.836789 -2.834793 -2.836789 C -4.397795 -2.836789 -5.667734 -1.566849 -5.667734 0.0000602858 C -5.667734 1.56697 -4.397795 2.836909 -2.834793 2.836909 C -1.267883 2.836909 -0.00185137 1.56697 -0.00185137 0.0000602858 Z M -0.00185137 0.0000602858 " transform="matrix(0.999679, 0, 0, -0.999679, 1659.372945, 837.890685)"/><path d="M 0.000813355 0.000390255 C 0.000813355 -1.566519 -1.269126 -2.836459 -2.836036 -2.836459 C -4.399038 -2.836459 -5.668977 -1.566519 -5.668977 0.000390255 C -5.668977 1.5673 -4.399038 2.833332 -2.836036 2.833332 C -1.269126 2.833332 0.000813355 1.5673 0.000813355 0.000390255 Z M 0.000813355 0.000390255 " transform="matrix(0.999679, 0, 0, -0.999679, 1852.854656, 1063.28164)"/><path d="M 0.000491874 0.00110086 L 45.065753 0.00110086 " transform="matrix(0.999679, 0, 0, -0.999679, 566.503415, 96.231569)"/></g><g id="incheon-1"><path d="M -0.00151233 0.00134776 L 68.4658 0.00134776 C 76.296441 0.00134776 82.638322 6.964523 82.638322 15.55322 L 82.638322 702.930336 C 82.638322 707.056661 81.145655 711.014964 78.488552 713.929964 L -9.785906 810.808749 C -12.44301 813.723748 -13.935677 817.682051 -13.935677 821.808377 L -13.93177 1481.235105 " transform="matrix(0.999679, 0, 0, -0.999679, 253.661668, 2355.630254)"/><path d="M 0.00177192 0.000867423 C 0.00177192 -1.566042 -1.268167 -2.835982 -2.835077 -2.835982 C -4.398079 -2.835982 -5.668019 -1.566042 -5.668019 0.000867423 C -5.668019 1.56387 -4.398079 2.833809 -2.835077 2.833809 C -1.268167 2.833809 0.00177192 1.56387 0.00177192 0.000867423 Z M 0.00177192 0.000867423 " transform="matrix(0.999679, 0, 0, -0.999679, 242.564635, 1325.860242)"/><path d="M -0.00163559 -0.0016267 C -0.00163559 -1.564629 -1.267667 -2.834568 -2.834577 -2.834568 C -4.401487 -2.834568 -5.667519 -1.564629 -5.667519 -0.0016267 C -5.667519 1.565283 -4.401487 2.835222 -2.834577 2.835222 C -1.267667 2.835222 -0.00163559 1.565283 -0.00163559 -0.0016267 Z M -0.00163559 -0.0016267 " transform="matrix(0.999679, 0, 0, -0.999679, 242.564135, 1275.943686)"/><path d="M 0.00177192 0.00127695 C 0.00177192 -1.565633 -1.268167 -2.835572 -2.835077 -2.835572 C -4.398079 -2.835572 -5.668019 -1.565633 -5.668019 0.00127695 C -5.668019 1.564279 -4.398079 2.834218 -2.835077 2.834218 C -1.268167 2.834218 0.00177192 1.564279 0.00177192 0.00127695 Z M 0.00177192 0.00127695 " transform="matrix(0.999679, 0, 0, -0.999679, 242.564635, 1227.595027)"/><path d="M 0.00127192 -0.000961521 C 0.00127192 -1.567871 -1.268667 -2.833903 -2.835577 -2.833903 C -4.398579 -2.833903 -5.668519 -1.567871 -5.668519 -0.000961521 C -5.668519 1.565948 -4.398579 2.835888 -2.835577 2.835888 C -1.268667 2.835888 0.00127192 1.565948 0.00127192 -0.000961521 Z M 0.00127192 -0.000961521 " transform="matrix(0.999679, 0, 0, -0.999679, 242.565135, 1173.694351)"/><path d="M 0.00177192 0.00158984 C 0.00177192 -1.56532 -1.268167 -2.835259 -2.835077 -2.835259 C -4.398079 -2.835259 -5.668019 -1.56532 -5.668019 0.00158984 C -5.668019 1.564592 -4.398079 2.834531 -2.835077 2.834531 C -1.268167 2.834531 0.00177192 1.564592 0.00177192 0.00158984 Z M 0.00177192 0.00158984 " transform="matrix(0.999679, 0, 0, -0.999679, 242.564635, 1121.677371)"/><path d="M 0.00177192 0.00101823 C 0.00177192 -1.565891 -1.268167 -2.835831 -2.835077 -2.835831 C -4.398079 -2.835831 -5.668019 -1.565891 -5.668019 0.00101823 C -5.668019 1.567928 -4.398079 2.83396 -2.835077 2.83396 C -1.268167 2.83396 0.00177192 1.567928 0.00177192 0.00101823 Z M 0.00177192 0.00101823 " transform="matrix(0.999679, 0, 0, -0.999679, 242.564635, 1071.751018)"/><path d="M 0.00177192 0.00155868 C 0.00177192 -1.565351 -1.268167 -2.83529 -2.835077 -2.83529 C -4.398079 -2.83529 -5.668019 -1.565351 -5.668019 0.00155868 C -5.668019 1.564561 -4.398079 2.8345 -2.835077 2.8345 C -1.268167 2.8345 0.00177192 1.564561 0.00177192 0.00155868 Z M 0.00177192 0.00155868 " transform="matrix(0.999679, 0, 0, -0.999679, 242.564635, 971.075777)"/><path d="M 0.00177192 0.000122612 C 0.00177192 -1.566787 -1.268167 -2.836726 -2.835077 -2.836726 C -4.398079 -2.836726 -5.668019 -1.566787 -5.668019 0.000122612 C -5.668019 1.567032 -4.398079 2.833064 -2.835077 2.833064 C -1.268167 2.833064 0.00177192 1.567032 0.00177192 0.000122612 Z M 0.00177192 0.000122612 " transform="matrix(0.999679, 0, 0, -0.999679, 242.564635, 920.765748)"/><path d="M 0.00177192 -0.00107773 C 0.00177192 -1.56408 -1.268167 -2.834019 -2.835077 -2.834019 C -4.398079 -2.834019 -5.668019 -1.56408 -5.668019 -0.00107773 C -5.668019 1.565832 -4.398079 2.835771 -2.835077 2.835771 C -1.268167 2.835771 0.00177192 1.565832 0.00177192 -0.00107773 Z M 0.00177192 -0.00107773 " transform="matrix(0.999679, 0, 0, -0.999679, 242.564635, 875.225485)"/><path d="M 0.00127192 0.000402215 C 0.00127192 -1.566508 -1.268667 -2.836447 -2.835577 -2.836447 C -4.398579 -2.836447 -5.668519 -1.566508 -5.668519 0.000402215 C -5.668519 1.567312 -4.398579 2.833344 -2.835577 2.833344 C -1.268667 2.833344 0.00127192 1.567312 0.00127192 0.000402215 Z M 0.00127192 0.000402215 " transform="matrix(0.999679, 0, 0, -0.999679, 242.565135, 1524.965246)"/><path d="M 0.000470683 0.000743222 C 0.000470683 -1.566167 -1.269469 -2.836106 -2.836378 -2.836106 C -4.399381 -2.836106 -5.66932 -1.566167 -5.66932 0.000743222 C -5.66932 1.563745 -4.399381 2.833685 -2.836378 2.833685 C -1.269469 2.833685 0.000470683 1.563745 0.000470683 0.000743222 Z M 0.000470683 0.000743222 " transform="matrix(0.999679, 0, 0, -0.999679, 317.405779, 1688.000743)"/><path d="M 0.000571499 -0.00107993 C 0.000571499 -1.564082 -1.269368 -2.834021 -2.836278 -2.834021 C -4.39928 -2.834021 -5.669219 -1.564082 -5.669219 -0.00107993 C -5.669219 1.56583 -4.39928 2.835769 -2.836278 2.835769 C -1.269368 2.835769 0.000571499 1.56583 0.000571499 -0.00107993 Z M 0.000571499 -0.00107993 " transform="matrix(0.999679, 0, 0, -0.999679, 339.108804, 1714.866108)"/><path d="M 0.000571499 -0.000888989 C 0.000571499 -1.563891 -1.269368 -2.833831 -2.836278 -2.833831 C -4.39928 -2.833831 -5.669219 -1.563891 -5.669219 -0.000888989 C -5.669219 1.566021 -4.39928 2.83596 -2.836278 2.83596 C -1.269368 2.83596 0.000571499 1.566021 0.000571499 -0.000888989 Z M 0.000571499 -0.000888989 " transform="matrix(0.999679, 0, 0, -0.999679, 339.108804, 1747.659268)"/><path d="M 0.000571499 0.0016605 C 0.000571499 -1.565249 -1.269368 -2.835189 -2.836278 -2.835189 C -4.39928 -2.835189 -5.669219 -1.565249 -5.669219 0.0016605 C -5.669219 1.564663 -4.39928 2.834602 -2.836278 2.834602 C -1.269368 2.834602 0.000571499 1.564663 0.000571499 0.0016605 Z M 0.000571499 0.0016605 " transform="matrix(0.999679, 0, 0, -0.999679, 339.108804, 1897.681347)"/><path d="M 0.000571499 -0.00139365 C 0.000571499 -1.564396 -1.269368 -2.834335 -2.836278 -2.834335 C -4.39928 -2.834335 -5.669219 -1.564396 -5.669219 -0.00139365 C -5.669219 1.565516 -4.39928 2.835455 -2.836278 2.835455 C -1.269368 2.835455 0.000571499 1.565516 0.000571499 -0.00139365 Z M 0.000571499 -0.00139365 " transform="matrix(0.999679, 0, 0, -0.999679, 339.108804, 1937.572826)"/><path d="M 0.000571499 -0.000540286 C 0.000571499 -1.56745 -1.269368 -2.833482 -2.836278 -2.833482 C -4.39928 -2.833482 -5.669219 -1.56745 -5.669219 -0.000540286 C -5.669219 1.566369 -4.39928 2.836309 -2.836278 2.836309 C -1.269368 2.836309 0.000571499 1.566369 0.000571499 -0.000540286 Z M 0.000571499 -0.000540286 " transform="matrix(0.999679, 0, 0, -0.999679, 339.108804, 1977.464304)"/><path d="M 0.000571499 0.000313073 C 0.000571499 -1.566597 -1.269368 -2.836536 -2.836278 -2.836536 C -4.39928 -2.836536 -5.669219 -1.566597 -5.669219 0.000313073 C -5.669219 1.563315 -4.39928 2.833255 -2.836278 2.833255 C -1.269368 2.833255 0.000571499 1.563315 0.000571499 0.000313073 Z M 0.000571499 0.000313073 " transform="matrix(0.999679, 0, 0, -0.999679, 339.108804, 2017.355782)"/><path d="M 0.000571499 0.00116643 C 0.000571499 -1.565743 -1.269368 -2.835683 -2.836278 -2.835683 C -4.39928 -2.835683 -5.669219 -1.565743 -5.669219 0.00116643 C -5.669219 1.564169 -4.39928 2.834108 -2.836278 2.834108 C -1.269368 2.834108 0.000571499 1.564169 0.000571499 0.00116643 Z M 0.000571499 0.00116643 " transform="matrix(0.999679, 0, 0, -0.999679, 339.108804, 2057.24726)"/><path d="M 0.0000714987 0.0010217 C 0.0000714987 -1.565888 -1.269868 -2.835827 -2.836778 -2.835827 C -4.39978 -2.835827 -5.669719 -1.565888 -5.669719 0.0010217 C -5.669719 1.564024 -4.39978 2.833963 -2.836778 2.833963 C -1.269868 2.833963 0.0000714987 1.564024 0.0000714987 0.0010217 Z M 0.0000714987 0.0010217 " transform="matrix(0.999679, 0, 0, -0.999679, 339.109304, 2139.813521)"/><path d="M 0.0000714987 -0.000999048 C 0.0000714987 -1.567909 -1.269868 -2.833941 -2.836778 -2.833941 C -4.39978 -2.833941 -5.669719 -1.567909 -5.669719 -0.000999048 C -5.669719 1.565911 -4.39978 2.83585 -2.836778 2.83585 C -1.269868 2.83585 0.0000714987 1.565911 0.0000714987 -0.000999048 Z M 0.0000714987 -0.000999048 " transform="matrix(0.999679, 0, 0, -0.999679, 339.109304, 2170.268533)"/><path d="M 0.0000714987 -0.00191979 C 0.0000714987 -1.564922 -1.269868 -2.834861 -2.836778 -2.834861 C -4.39978 -2.834861 -5.669719 -1.564922 -5.669719 -0.00191979 C -5.669719 1.56499 -4.39978 2.834929 -2.836778 2.834929 C -1.269868 2.834929 0.0000714987 1.56499 0.0000714987 -0.00191979 Z M 0.0000714987 -0.00191979 " transform="matrix(0.999679, 0, 0, -0.999679, 339.109304, 2200.724643)"/><path d="M 0.0000714987 -0.0000330341 C 0.0000714987 -1.566943 -1.269868 -2.836882 -2.836778 -2.836882 C -4.39978 -2.836882 -5.669719 -1.566943 -5.669719 -0.0000330341 C -5.669719 1.566877 -4.39978 2.836816 -2.836778 2.836816 C -1.269868 2.836816 0.0000714987 1.566877 0.0000714987 -0.0000330341 Z M 0.0000714987 -0.0000330341 " transform="matrix(0.999679, 0, 0, -0.999679, 339.109304, 2231.179654)"/><path d="M 0.0000714987 -0.00006702 C 0.0000714987 -1.566977 -1.269868 -2.836916 -2.836778 -2.836916 C -4.39978 -2.836916 -5.669719 -1.566977 -5.669719 -0.00006702 C -5.669719 1.566843 -4.39978 2.836782 -2.836778 2.836782 C -1.269868 2.836782 0.0000714987 1.566843 0.0000714987 -0.00006702 Z M 0.0000714987 -0.00006702 " transform="matrix(0.999679, 0, 0, -0.999679, 339.109304, 2292.089777)"/><path d="M 0.0000714987 0.00185373 C 0.0000714987 -1.565056 -1.269868 -2.834995 -2.836778 -2.834995 C -4.39978 -2.834995 -5.669719 -1.565056 -5.669719 0.00185373 C -5.669719 1.564856 -4.39978 2.834795 -2.836778 2.834795 C -1.269868 2.834795 0.0000714987 1.564856 0.0000714987 0.00185373 Z M 0.0000714987 0.00185373 " transform="matrix(0.999679, 0, 0, -0.999679, 339.109304, 2261.634666)"/><path d="M 0.0000714987 -0.00108777 C 0.0000714987 -1.56409 -1.269868 -2.834029 -2.836778 -2.834029 C -4.39978 -2.834029 -5.669719 -1.56409 -5.669719 -0.00108777 C -5.669719 1.565822 -4.39978 2.835761 -2.836778 2.835761 C -1.269868 2.835761 0.0000714987 1.565822 0.0000714987 -0.00108777 Z M 0.0000714987 -0.00108777 " transform="matrix(0.999679, 0, 0, -0.999679, 339.109304, 2322.545788)"/><path d="M -0.00065993 -0.000110077 C -0.00065993 -1.56702 -1.270599 -2.833052 -2.833601 -2.833052 C -4.400511 -2.833052 -5.67045 -1.56702 -5.67045 -0.000110077 C -5.67045 1.5668 -4.400511 2.836739 -2.833601 2.836739 C -1.270599 2.836739 -0.00065993 1.5668 -0.00065993 -0.000110077 Z M -0.00065993 -0.000110077 " transform="matrix(0.999679, 0, 0, -0.999679, 327.539722, 2355.867077)"/><path d="M -0.00184498 -0.00105246 C -0.00184498 -1.564055 -1.267877 -2.833994 -2.834786 -2.833994 C -4.401696 -2.833994 -5.667728 -1.564055 -5.667728 -0.00105246 C -5.667728 1.565857 -4.401696 2.835797 -2.834786 2.835797 C -1.267877 2.835797 -0.00184498 1.565857 -0.00184498 -0.00105246 Z M -0.00184498 -0.00105246 " transform="matrix(0.999679, 0, 0, -0.999679, 257.079969, 2355.784104)"/><path d="M 0.00177192 -0.001004 C 0.00177192 -1.564006 -1.268167 -2.833946 -2.835077 -2.833946 C -4.398079 -2.833946 -5.668019 -1.564006 -5.668019 -0.001004 C -5.668019 1.565906 -4.398079 2.835845 -2.835077 2.835845 C -1.268167 2.835845 0.00177192 1.565906 0.00177192 -0.001004 Z M 0.00177192 -0.001004 " transform="matrix(0.999679, 0, 0, -0.999679, 242.564635, 1374.40134)"/><path d="M -0.00157519 -0.000525064 L 45.063686 -0.000525064 " transform="matrix(0.999679, 0, 0, -0.999679, 883.73595, 172.593225)"/><path d="M -0.00157519 -0.000525064 L 45.063686 -0.000525064 " transform="matrix(0.999679, 0, 0, -0.999679, 883.73595, 172.593225)"/></g><g id="incheon-2"><path d="M 0.00177643 0.000779196 L 0.00177643 197.622872 C 0.00177643 205.449606 -6.34792 211.795395 -14.174654 211.795395 L -194.818635 211.795395 C -198.577655 211.795395 -202.184283 213.288062 -204.841387 215.945166 L -305.897295 317.004982 C -308.554399 319.662085 -310.047066 323.268713 -310.047066 327.023826 L -310.078326 1203.64925 " transform="matrix(0.999679, 0, 0, -0.999679, 442.93963, 2000.719529)"/><path d="M 0.000715311 -0.00132511 C 0.000715311 -1.564327 -1.269224 -2.834267 -2.836134 -2.834267 C -4.399136 -2.834267 -5.669075 -1.564327 -5.669075 -0.00132511 C -5.669075 1.565585 -4.399136 2.835524 -2.836134 2.835524 C -1.269224 2.835524 0.000715311 1.565585 0.000715311 -0.00132511 Z M 0.000715311 -0.00132511 " transform="matrix(0.999679, 0, 0, -0.999679, 135.792254, 832.885394)"/><path d="M 0.000715311 -0.0016498 C 0.000715311 -1.564652 -1.269224 -2.834591 -2.836134 -2.834591 C -4.399136 -2.834591 -5.669075 -1.564652 -5.669075 -0.0016498 C -5.669075 1.56526 -4.399136 2.835199 -2.836134 2.835199 C -1.269224 2.835199 0.000715311 1.56526 0.000715311 -0.0016498 Z M 0.000715311 -0.0016498 " transform="matrix(0.999679, 0, 0, -0.999679, 135.792254, 797.455382)"/><path d="M 0.000215311 -0.000500415 C 0.000215311 -1.56741 -1.269724 -2.833442 -2.836634 -2.833442 C -4.399636 -2.833442 -5.669575 -1.563503 -5.669575 -0.000500415 C -5.669575 1.566409 -4.399636 2.836349 -2.836634 2.836349 C -1.269724 2.836349 0.000215311 1.566409 0.000215311 -0.000500415 Z M 0.000215311 -0.000500415 " transform="matrix(0.999679, 0, 0, -0.999679, 135.792754, 868.315906)"/><path d="M 0.000215311 -0.000175722 C 0.000215311 -1.563178 -1.269724 -2.833117 -2.836634 -2.833117 C -4.399636 -2.833117 -5.669575 -1.563178 -5.669575 -0.000175722 C -5.669575 1.566734 -4.399636 2.836673 -2.836634 2.836673 C -1.269724 2.836673 0.000215311 1.566734 0.000215311 -0.000175722 Z M 0.000215311 -0.000175722 " transform="matrix(0.999679, 0, 0, -0.999679, 135.792754, 903.745918)"/><path d="M 0.000215311 0.000648972 C 0.000215311 -1.566261 -1.269724 -2.8362 -2.836634 -2.8362 C -4.399636 -2.8362 -5.669575 -1.566261 -5.669575 0.000648972 C -5.669575 1.567559 -4.399636 2.83359 -2.836634 2.83359 C -1.269724 2.83359 0.000215311 1.567559 0.000215311 0.000648972 Z M 0.000215311 0.000648972 " transform="matrix(0.999679, 0, 0, -0.999679, 135.792754, 939.17643)"/><path d="M 0.000215311 0.000973666 C 0.000215311 -1.565936 -1.269724 -2.835875 -2.836634 -2.835875 C -4.399636 -2.835875 -5.669575 -1.565936 -5.669575 0.000973666 C -5.669575 1.563976 -4.399636 2.833915 -2.836634 2.833915 C -1.269724 2.833915 0.000215311 1.563976 0.000215311 0.000973666 Z M 0.000215311 0.000973666 " transform="matrix(0.999679, 0, 0, -0.999679, 135.792754, 974.606442)"/><path d="M 0.000715311 0.000800215 C 0.000715311 -1.56611 -1.269224 -2.836049 -2.836134 -2.836049 C -4.399136 -2.836049 -5.669075 -1.56611 -5.669075 0.000800215 C -5.669075 1.563802 -4.399136 2.833742 -2.836134 2.833742 C -1.269224 2.833742 0.000715311 1.563802 0.000715311 0.000800215 Z M 0.000715311 0.000800215 " transform="matrix(0.999679, 0, 0, -0.999679, 135.792254, 1153.106269)"/><path d="M 0.000715311 -0.00187635 C 0.000715311 -1.564879 -1.269224 -2.834818 -2.836134 -2.834818 C -4.399136 -2.834818 -5.669075 -1.564879 -5.669075 -0.00187635 C -5.669075 1.565033 -4.399136 2.834973 -2.836134 2.834973 C -1.269224 2.834973 0.000715311 1.565033 0.000715311 -0.00187635 Z M 0.000715311 -0.00187635 " transform="matrix(0.999679, 0, 0, -0.999679, 135.792254, 1085.537187)"/><path d="M 0.000715311 -0.00092894 C 0.000715311 -1.567839 -1.269224 -2.83387 -2.836134 -2.83387 C -4.399136 -2.83387 -5.669075 -1.567839 -5.669075 -0.00092894 C -5.669075 1.565981 -4.399136 2.83592 -2.836134 2.83592 C -1.269224 2.83592 0.000715311 1.565981 0.000715311 -0.00092894 Z M 0.000715311 -0.00092894 " transform="matrix(0.999679, 0, 0, -0.999679, 135.792254, 1217.655321)"/><path d="M 0.000215311 0.00111671 C 0.000215311 -1.565793 -1.269724 -2.835732 -2.836634 -2.835732 C -4.399636 -2.835732 -5.669575 -1.565793 -5.669575 0.00111671 C -5.669575 1.564119 -4.399636 2.834058 -2.836634 2.834058 C -1.269724 2.834058 0.000215311 1.564119 0.000215311 0.00111671 Z M 0.000215311 0.00111671 " transform="matrix(0.999679, 0, 0, -0.999679, 135.792754, 1285.864398)"/><path d="M 0.000715311 -0.00104582 C 0.000715311 -1.564048 -1.269224 -2.833987 -2.836134 -2.833987 C -4.399136 -2.833987 -5.669075 -1.564048 -5.669075 -0.00104582 C -5.669075 1.565864 -4.399136 2.835803 -2.836134 2.835803 C -1.269224 2.835803 0.000715311 1.565864 0.000715311 -0.00104582 Z M 0.000715311 -0.00104582 " transform="matrix(0.999679, 0, 0, -0.999679, 135.792254, 1356.311455)"/><path d="M 0.000715311 -0.000482331 C 0.000715311 -1.567392 -1.269224 -2.833424 -2.836134 -2.833424 C -4.399136 -2.833424 -5.669075 -1.567392 -5.669075 -0.000482331 C -5.669075 1.566427 -4.399136 2.836367 -2.836134 2.836367 C -1.269224 2.836367 0.000715311 1.56252 0.000715311 -0.000482331 Z M 0.000715311 -0.000482331 " transform="matrix(0.999679, 0, 0, -0.999679, 135.792254, 1524.644049)"/><path d="M -0.00134738 0.000116368 C -0.00134738 -1.492551 -1.208767 -2.69997 -2.701434 -2.69997 C -4.190193 -2.69997 -5.40152 -1.492551 -5.40152 0.000116368 C -5.40152 1.492783 -4.190193 2.700203 -2.701434 2.700203 C -1.208767 2.700203 -0.00134738 1.492783 -0.00134738 0.000116368 Z M -0.00134738 0.000116368 " transform="matrix(0.999679, 0, 0, -0.999679, 135.657597, 1583.664179)"/><path d="M -0.00134738 -0.000627082 C -0.00134738 -1.489387 -1.208767 -2.700713 -2.701434 -2.700713 C -4.190193 -2.700713 -5.40152 -1.489387 -5.40152 -0.000627082 C -5.40152 1.49204 -4.190193 2.699459 -2.701434 2.699459 C -1.208767 2.699459 -0.00134738 1.49204 -0.00134738 -0.000627082 Z M -0.00134738 -0.000627082 " transform="matrix(0.999679, 0, 0, -0.999679, 135.657597, 1640.675154)"/><path d="M 0.00113426 0.00192853 C 0.00113426 -1.564981 -1.268805 -2.83492 -2.835715 -2.83492 C -4.398717 -2.83492 -5.668656 -1.564981 -5.668656 0.00192853 C -5.668656 1.564931 -4.398717 2.83487 -2.835715 2.83487 C -1.268805 2.83487 0.00113426 1.564931 0.00113426 0.00192853 Z M 0.00113426 0.00192853 " transform="matrix(0.999679, 0, 0, -0.999679, 161.459804, 1705.392553)"/><path d="M 0.00042197 0.00145487 C 0.00042197 -1.565455 -1.269517 -2.835394 -2.836427 -2.835394 C -4.399429 -2.835394 -5.669369 -1.565455 -5.669369 0.00145487 C -5.669369 1.564457 -4.399429 2.834396 -2.836427 2.834396 C -1.269517 2.834396 0.00042197 1.564457 0.00042197 0.00145487 Z M 0.00042197 0.00145487 " transform="matrix(0.999679, 0, 0, -0.999679, 265.491766, 1788.962392)"/><path d="M 0.00117529 0.00145487 C 0.00117529 -1.565455 -1.268764 -2.835394 -2.835674 -2.835394 C -4.398676 -2.835394 -5.668615 -1.565455 -5.668615 0.00145487 C -5.668615 1.564457 -4.398676 2.834396 -2.835674 2.834396 C -1.268764 2.834396 0.00117529 1.564457 0.00117529 0.00145487 Z M 0.00117529 0.00145487 " transform="matrix(0.999679, 0, 0, -0.999679, 313.6082, 1788.962392)"/><path d="M 0.00021795 -0.00182147 C 0.00021795 -1.564824 -1.269721 -2.834763 -2.836631 -2.834763 C -4.399633 -2.834763 -5.669573 -1.564824 -5.669573 -0.00182147 C -5.669573 1.565088 -4.399633 2.835028 -2.836631 2.835028 C -1.269721 2.835028 0.00021795 1.565088 0.00021795 -0.00182147 Z M 0.00021795 -0.00182147 " transform="matrix(0.999679, 0, 0, -0.999679, 445.77322, 1814.552867)"/><path d="M 0.00021795 0.000868332 C 0.00021795 -1.562134 -1.269721 -2.835981 -2.836631 -2.835981 C -4.399633 -2.835981 -5.669573 -1.562134 -5.669573 0.000868332 C -5.669573 1.567778 -4.399633 2.83381 -2.836631 2.83381 C -1.269721 2.83381 0.00021795 1.567778 0.00021795 0.000868332 Z M 0.00021795 0.000868332 " transform="matrix(0.999679, 0, 0, -0.999679, 445.77322, 1851.668837)"/><path d="M 0.00071795 -0.000349371 C 0.00071795 -1.563352 -1.269221 -2.833291 -2.836131 -2.833291 C -4.399133 -2.833291 -5.669073 -1.563352 -5.669073 -0.000349371 C -5.669073 1.56656 -4.399133 2.8365 -2.836131 2.8365 C -1.269221 2.8365 0.00071795 1.56656 0.00071795 -0.000349371 Z M 0.00071795 -0.000349371 " transform="matrix(0.999679, 0, 0, -0.999679, 445.77272, 1888.784807)"/><path d="M 0.00021795 -0.00156707 C 0.00021795 -1.564569 -1.269721 -2.834509 -2.836631 -2.834509 C -4.399633 -2.834509 -5.669573 -1.564569 -5.669573 -0.00156707 C -5.669573 1.565343 -4.399633 2.835282 -2.836631 2.835282 C -1.269721 2.835282 0.00021795 1.565343 0.00021795 -0.00156707 Z M 0.00021795 -0.00156707 " transform="matrix(0.999679, 0, 0, -0.999679, 445.77322, 1925.900777)"/><path d="M -0.00028205 0.00100503 C -0.00028205 -1.565905 -1.270221 -2.835844 -2.833224 -2.835844 C -4.400133 -2.835844 -5.670073 -1.565905 -5.670073 0.00100503 C -5.670073 1.567915 -4.400133 2.833947 -2.833224 2.833947 C -1.270221 2.833947 -0.00028205 1.567915 -0.00028205 0.00100503 Z M -0.00028205 0.00100503 " transform="matrix(0.999679, 0, 0, -0.999679, 445.773719, 2000.133817)"/><path d="M -0.00028205 0.00122273 C -0.00028205 -1.565687 -1.270221 -2.835626 -2.833224 -2.835626 C -4.400133 -2.835626 -5.670073 -1.565687 -5.670073 0.00122273 C -5.670073 1.564225 -4.400133 2.834164 -2.833224 2.834164 C -1.270221 2.834164 -0.00028205 1.564225 -0.00028205 0.00122273 Z M -0.00028205 0.00122273 " transform="matrix(0.999679, 0, 0, -0.999679, 445.773719, 1963.016847)"/><path d="M 0.00168737 0.00150226 L 45.066949 0.00150226 " transform="matrix(0.999679, 0, 0, -0.999679, 1146.123313, 148.067908)"/></g><g id="arex"><path d="M -0.000149602 -0.00012869 L -171.555273 -171.555252 C -174.216284 -174.216263 -177.822912 -175.708931 -181.581932 -175.708931 L -278.109042 -175.701116 C -281.868062 -175.701116 -285.47469 -174.208448 -288.131794 -171.551345 L -306.106319 -153.576819 L -578.768149 119.088918 L -581.108744 121.429514 C -583.765848 124.086617 -587.372476 125.579285 -591.131496 125.579285 L -857.642912 125.579285 C -861.401932 125.579285 -865.00856 124.086617 -867.665664 121.429514 L -910.706837 78.38834 C -913.363941 75.731236 -916.970569 74.238569 -920.729589 74.238569 L -1154.24212 74.277644 C -1162.072762 74.281552 -1168.418551 67.935763 -1168.418551 60.105122 L -1168.418551 -1138.279939 " transform="matrix(0.999679, 0, 0, -0.999679, 1223.964993, 1088.94909)"/><path d="M -0.00110908 -0.000917869 C -0.00110908 -1.567828 -1.267141 -2.833859 -2.834051 -2.833859 C -4.40096 -2.833859 -5.6709 -1.56392 -5.6709 -0.000917869 C -5.6709 1.565992 -4.40096 2.835931 -2.834051 2.835931 C -1.267141 2.835931 -0.00110908 1.565992 -0.00110908 -0.000917869 Z M -0.00110908 -0.000917869 " transform="matrix(0.999679, 0, 0, -0.999679, 58.755015, 1088.370176)"/><path d="M -0.000609076 0.000575787 C -0.000609076 -1.566334 -1.270548 -2.836273 -2.833551 -2.836273 C -4.40046 -2.836273 -5.6704 -1.562426 -5.6704 0.000575787 C -5.6704 1.567486 -4.40046 2.833517 -2.833551 2.833517 C -1.270548 2.833517 -0.000609076 1.567486 -0.000609076 0.000575787 Z M -0.000609076 0.000575787 " transform="matrix(0.999679, 0, 0, -0.999679, 58.754515, 1858.742763)"/><path d="M -0.00110908 -0.0000581895 C -0.00110908 -1.566968 -1.267141 -2.836907 -2.834051 -2.836907 C -4.40096 -2.836907 -5.6709 -1.566968 -5.6709 -0.0000581895 C -5.6709 1.566852 -4.40096 2.836791 -2.834051 2.836791 C -1.267141 2.836791 -0.00110908 1.566852 -0.00110908 -0.0000581895 Z M -0.00110908 -0.0000581895 " transform="matrix(0.999679, 0, 0, -0.999679, 58.755015, 2042.894473)"/><path d="M -0.000609076 -0.00174495 C -0.000609076 -1.564747 -1.270548 -2.834686 -2.833551 -2.834686 C -4.40046 -2.834686 -5.6704 -1.564747 -5.6704 -0.00174495 C -5.6704 1.565165 -4.40046 2.835104 -2.833551 2.835104 C -1.270548 2.835104 -0.000609076 1.565165 -0.000609076 -0.00174495 Z M -0.000609076 -0.00174495 " transform="matrix(0.999679, 0, 0, -0.999679, 58.754515, 1950.818568)"/><path d="M -0.00110908 -0.00137893 C -0.00110908 -1.564381 -1.267141 -2.83432 -2.834051 -2.83432 C -4.40096 -2.83432 -5.6709 -1.564381 -5.6709 -0.00137893 C -5.6709 1.565531 -4.40096 2.83547 -2.834051 2.83547 C -1.267141 2.83547 -0.00110908 1.565531 -0.00110908 -0.00137893 Z M -0.00110908 -0.00137893 " transform="matrix(0.999679, 0, 0, -0.999679, 58.755015, 2134.971278)"/><path d="M -0.000609076 0.000307834 C -0.000609076 -1.566602 -1.270548 -2.836541 -2.833551 -2.836541 C -4.40046 -2.836541 -5.6704 -1.566602 -5.6704 0.000307834 C -5.6704 1.567218 -4.40046 2.833249 -2.833551 2.833249 C -1.270548 2.833249 -0.000609076 1.567218 -0.000609076 0.000307834 Z M -0.000609076 0.000307834 " transform="matrix(0.999679, 0, 0, -0.999679, 58.754515, 2227.047183)"/><path d="M -0.00157519 -0.00017654 L 45.063686 -0.00017654 " transform="matrix(0.999679, 0, 0, -0.999679, 883.73595, 147.22248)"/></g></defs></svg>